<svg xmlns="http://www.w3.org/2000/svg" width="103.945" height="118.345" viewBox="0 0 27.502 31.312"><path stroke-width=".265" d="M-1222.7 67.288c.076.127.127.203.178.254.05.025.101.076.178.102.05.05.152.076.304.076.127 0 .28 0 .407-.026.152 0 .406-.025.762-.05 1.575-.127 2.362-.432 2.362-.94 0-.203-.178-.432-.559-.686-.38-.229-.736-.356-1.067-.356h-.635v-2.768c0-1.829-.05-2.82-.152-2.947-.076-.127-.229-.279-.508-.431s-.483-.229-.61-.229c-.38 0-.584 1.067-.584 3.175 0 1.473-.076 2.565-.203 3.277-.076.457-.127.787-.102.94.025.203.102.38.229.609zm5.36 7.163c-.661.33-1.144.508-1.5.61-.304.05-.914.101-1.803.126-.787.026-1.397 0-1.803-.025-.381-.05-.864-.178-1.448-.356-.863-.279-1.6-.61-2.184-.965s-1.22-.838-1.88-1.422c-1.067-.99-1.829-2.083-2.311-3.302a7.528 7.528 0 0 1-.432-3.81c.229-1.499.737-2.845 1.575-4.09s1.88-2.235 3.15-2.971a9.466 9.466 0 0 1 4.089-1.321c1.55-.127 2.87.05 3.962.482s2.058 1.22 2.896 2.337a14.479 14.479 0 0 1 2.235 4.191c.559 1.499.737 2.82.61 3.937-.127 1.143-.712 2.362-1.728 3.683-1.041 1.296-2.184 2.26-3.429 2.896zm-5.944 2.006c1.854.381 3.581.356 5.207-.076 1.575-.432 2.972-1.219 4.115-2.387 1.549-1.55 2.54-3.1 2.997-4.572.432-1.524.406-3.15-.127-4.953a16.996 16.996 0 0 0-2.616-5.258c-1.22-1.6-2.388-2.642-3.582-3.099-.482-.178-.94-.305-1.422-.381s-1.245-.127-2.337-.152l-2.642-.077-1.854.89c-1.219.558-2.083 1.015-2.59 1.396-.534.381-1.093.94-1.702 1.677-.864 1.092-1.499 2.184-1.93 3.276s-.636 2.261-.636 3.48c0 1.372.254 2.591.711 3.658.508 1.067 1.296 2.133 2.388 3.226 1.803 1.803 3.81 2.92 6.02 3.352z" aria-label="i" style="font-feature-settings:normal;font-variant-caps:normal;font-variant-ligatures:normal;font-variant-numeric:normal" transform="translate(1235.3 -50.718)"/></svg>
