<svg xmlns="http://www.w3.org/2000/svg" xml:space="preserve" width="10mm" height="10mm" viewBox="0 0 135.47 135.47"><g fill="#fff" stroke-linecap="square" stroke-linejoin="round" transform="translate(-25.105 -22.747)"><path d="M92.839 22.746a67.733 67.733 0 0 0-67.733 67.733 67.733 67.733 0 0 0 67.733 67.733 67.733 67.733 0 0 0 67.733-67.733 67.733 67.733 0 0 0-67.733-67.733zm-.28 10.592a57.377 57.141 0 0 1 57.377 57.141A57.377 57.141 0 0 1 92.56 147.62a57.377 57.141 0 0 1-57.377-57.141A57.377 57.141 0 0 1 92.56 33.338z"/><circle cx="92.839" cy="65.874" r="7.25"/><rect width="11" height="45" x="87.3" y="80" ry="5.5"/></g></svg>